<?xml version="1.0" encoding="utf-8"?>
<!-- Generator: Adobe Illustrator 16.0.3, SVG Export Plug-In . SVG Version: 6.00 Build 0)  -->
<!DOCTYPE svg PUBLIC "-//W3C//DTD SVG 1.1//EN" "http://www.w3.org/Graphics/SVG/1.1/DTD/svg11.dtd">
<svg version="1.1" id="Capa_1" xmlns="http://www.w3.org/2000/svg" xmlns:xlink="http://www.w3.org/1999/xlink" x="0px" y="0px"
	 width="37.879px" height="50.945px" viewBox="371.375 509.055 37.879 50.945"
	 enable-background="new 371.375 509.055 37.879 50.945" xml:space="preserve">
<path fill="#D4E1F4" d="M407.902,549.915c0.046,2.631-7.714,4.763-17.238,4.763c-9.525,0-17.282-2.132-17.282-4.763
	c0-2.223,5.443-4.082,12.837-4.626h0.227v6.078h4.219h4.218v-6.033h0.319C402.549,545.878,407.902,547.738,407.902,549.915z"/>
<g>
	<circle fill="#4DCFE0" cx="390.664" cy="518.208" r="3.447"/>
	<path fill="#4DCFE0" d="M394.882,538.122v7.212v6.033h-4.218h-4.219v-6.078v-7.167h-0.18h-3.993v-7.303
		c0-3.267,2.631-5.898,5.896-5.898h4.991c3.267,0,5.896,2.632,5.896,5.898v7.303H394.882L394.882,538.122z"/>
</g>
<g>
	<path fill="#3A2C51" d="M390.432,522.604c-2.664,0-4.867-2.204-4.867-4.867c0-2.667,2.203-4.87,4.867-4.87
		c2.663,0,4.869,2.203,4.869,4.87C395.301,520.399,393.095,522.604,390.432,522.604z M390.432,515.623
		c-1.147,0-2.112,0.963-2.112,2.113c0,1.147,0.965,2.111,2.112,2.111c1.148,0,2.112-0.964,2.112-2.111
		C392.544,516.586,391.58,515.623,390.432,515.623z"/>
	<path fill="#3A2C51" d="M396.082,543.915v-4.641h2.846c0.781,0,1.378-0.597,1.378-1.377v-7.395c0-4.041-3.307-7.349-7.347-7.349
		h-5.054c-4.041,0-7.349,3.308-7.349,7.349v7.395c0,0.78,0.598,1.377,1.378,1.377h2.85v4.595
		c-4.135,0.365-13.229,1.744-13.229,5.969c0,4.271,9.782,6.201,18.876,6.201c8.451,0,15.479-1.562,17.82-3.949
		c0.826-0.874,1.01-1.7,1.01-2.252C409.262,545.613,400.122,544.282,396.082,543.915z M383.312,536.52v-6.017
		c0-2.526,2.067-4.594,4.594-4.594h5.055c2.522,0,4.591,2.067,4.591,4.594v6.017h-1.469v-7.35h-2.758v20.761h-1.515v-9.232h-2.755
		v9.232h-1.517V529.17h-2.754v7.35H383.312z M390.432,553.283c-10.334,0-15.983-2.435-16.121-3.445
		c0.047-0.642,3.216-2.479,10.474-3.215v4.687c0,0.78,0.595,1.378,1.375,1.378h4.272h4.27c0.781,0,1.381-0.598,1.381-1.378v-4.64
		c7.162,0.689,10.332,2.479,10.425,3.168C406.369,550.895,400.719,553.283,390.432,553.283z"/>
</g>
</svg>
