<?xml version="1.0" encoding="utf-8"?>
<!-- Generator: Adobe Illustrator 16.0.3, SVG Export Plug-In . SVG Version: 6.00 Build 0)  -->
<!DOCTYPE svg PUBLIC "-//W3C//DTD SVG 1.1//EN" "http://www.w3.org/Graphics/SVG/1.1/DTD/svg11.dtd">
<svg version="1.1" id="Capa_1" xmlns="http://www.w3.org/2000/svg" xmlns:xlink="http://www.w3.org/1999/xlink" x="0px" y="0px"
	 width="34.947px" height="50.945px" viewBox="0 0 34.947 50.945" enable-background="new 0 0 34.947 50.945" xml:space="preserve">
<path fill="#C78FF5" d="M34.947,17.473c0,2.893-0.723,5.762-2.094,8.298l-0.006,0.012l-13.194,23.86
	c-0.438,0.794-1.273,1.286-2.18,1.286c-0.908,0-1.743-0.492-2.181-1.286L2.097,25.779C0.726,23.238,0,20.367,0,17.473
	C0,7.839,7.838,0,17.474,0C27.108,0,34.947,7.839,34.947,17.473z"/>
<path fill="#A260E5" d="M34.947,17.473c0,2.893-0.723,5.762-2.094,8.298l-0.006,0.012l-13.194,23.86
	c-0.438,0.794-1.273,1.286-2.18,1.286V0C27.108,0,34.947,7.839,34.947,17.473z"/>
<path fill="#F7ECD9" d="M25.463,17.268c0,4.405-3.584,7.989-7.989,7.989s-7.989-3.583-7.989-7.989s3.584-7.99,7.989-7.99
	S25.463,12.863,25.463,17.268z"/>
<path fill="#EACD9D" d="M25.463,17.268c0,4.405-3.584,7.989-7.989,7.989V9.279C21.879,9.279,25.463,12.863,25.463,17.268z"/>
</svg>
