<?xml version="1.0" encoding="utf-8"?>
<!-- Generator: Adobe Illustrator 16.0.3, SVG Export Plug-In . SVG Version: 6.00 Build 0)  -->
<!DOCTYPE svg PUBLIC "-//W3C//DTD SVG 1.1//EN" "http://www.w3.org/Graphics/SVG/1.1/DTD/svg11.dtd">
<svg version="1.1" id="Capa_1" xmlns="http://www.w3.org/2000/svg" xmlns:xlink="http://www.w3.org/1999/xlink" x="0px" y="0px"
	 width="28.254px" height="38px" viewBox="381 522 28.254 38" enable-background="new 381 522 28.254 38" xml:space="preserve">
<path fill="#2196F3" d="M395.127,522.287c-7.791,0-14.127,6.335-14.127,14.127c0,9.793,12.75,22.656,13.293,23.201
	c0.23,0.228,0.533,0.344,0.834,0.344c0.302,0,0.604-0.116,0.834-0.344c0.543-0.545,13.293-13.408,13.293-23.201
	C409.254,528.622,402.919,522.287,395.127,522.287z"/>
<path fill="#FAFAFA" d="M403.057,535.122l-6.793-5.435c-0.499-0.395-1.202-0.395-1.699,0l-6.793,5.435
	c-0.45,0.361-0.624,0.968-0.434,1.514s0.707,0.907,1.282,0.907h1.357v6.794c0,0.748,0.611,1.357,1.36,1.357h8.15
	c0.751,0,1.358-0.609,1.358-1.357v-6.794h1.358c0.575,0,1.09-0.363,1.282-0.907S403.506,535.483,403.057,535.122z"/>
</svg>
