<?xml version="1.0" encoding="utf-8"?>
<!-- Generator: Adobe Illustrator 16.0.0, SVG Export Plug-In . SVG Version: 6.00 Build 0)  -->
<!DOCTYPE svg PUBLIC "-//W3C//DTD SVG 1.1//EN" "http://www.w3.org/Graphics/SVG/1.1/DTD/svg11.dtd">
<svg version="1.1" id="Layer_1" xmlns="http://www.w3.org/2000/svg" xmlns:xlink="http://www.w3.org/1999/xlink" x="0px" y="0px"
	 width="464.5px" height="183.5px" viewBox="9.987 22.494 464.5 183.5" enable-background="new 9.987 22.494 464.5 183.5"
	 xml:space="preserve">
<g enable-background="new    ">
	<path d="M256.913,149.874c-1.65,3.118-4.199,5.648-7.645,7.591c-3.448,1.943-7.738,2.914-12.871,2.914
		c-4.988,0-9.424-0.916-13.31-2.75c-3.888-1.832-6.985-4.345-9.295-7.534c-2.31-3.19-3.649-6.766-4.015-10.726h8.14
		c0.292,2.274,1.136,4.548,2.53,6.82c1.392,2.273,3.41,4.163,6.05,5.665c2.64,1.504,5.83,2.255,9.57,2.255
		c4.912,0,8.671-1.32,11.275-3.96c2.603-2.64,3.905-5.977,3.905-10.01c0-3.446-0.862-6.251-2.585-8.415
		c-1.725-2.162-3.85-3.831-6.38-5.005c-2.53-1.173-5.995-2.456-10.395-3.851c-4.84-1.54-8.745-3.024-11.715-4.455
		c-2.97-1.43-5.482-3.537-7.535-6.324c-2.054-2.786-3.08-6.49-3.08-11.11c0-5.866,2.052-10.632,6.16-14.3
		c4.106-3.666,9.752-5.5,16.94-5.5c7.332,0,13.145,1.798,17.435,5.39c4.29,3.594,6.838,8.067,7.645,13.42h-8.25
		c-0.659-3.3-2.402-6.232-5.224-8.8c-2.824-2.566-6.693-3.85-11.605-3.85c-4.548,0-8.178,1.174-10.89,3.52
		c-2.714,2.348-4.07,5.61-4.07,9.79c0,3.3,0.842,5.978,2.53,8.03c1.686,2.054,3.757,3.63,6.215,4.729
		c2.456,1.101,5.811,2.348,10.065,3.74c4.913,1.54,8.891,3.044,11.935,4.51c3.043,1.468,5.628,3.668,7.756,6.601
		c2.126,2.934,3.189,6.819,3.189,11.659C259.388,143.439,258.563,146.758,256.913,149.874z"/>
	<path d="M275.778,153.449h28.16v6.16h-35.971V82.06h7.811V153.449z"/>
	<path d="M308.831,77.879c1.063-0.952,2.438-1.43,4.125-1.43c1.687,0,3.043,0.478,4.07,1.43c1.026,0.954,1.541,2.238,1.541,3.851
		c0,1.54-0.515,2.788-1.541,3.74c-1.027,0.953-2.384,1.43-4.07,1.43c-1.688,0-3.063-0.477-4.125-1.43
		c-1.063-0.952-1.594-2.2-1.594-3.74C307.237,80.117,307.768,78.833,308.831,77.879z M316.807,99.55v60.06h-7.81V99.55H316.807z"/>
	<path d="M375.05,105.104c4.363,4.438,6.546,10.945,6.546,19.524v34.98h-7.591v-34.43c0-6.526-1.649-11.531-4.949-15.016
		c-3.301-3.481-7.811-5.225-13.53-5.225c-6.014,0-10.799,1.925-14.354,5.775c-3.559,3.85-5.336,9.515-5.336,16.994v31.9h-7.81V99.55
		h7.81v14.739c1.541-5.132,4.326-9.056,8.36-11.77c4.032-2.712,8.652-4.07,13.86-4.07
		C365.021,98.449,370.687,100.668,375.05,105.104z"/>
	<path d="M432.195,149.93c3.666-2.713,5.866-6.38,6.6-11h8.14c-1.1,6.38-4.144,11.55-9.129,15.51
		c-4.988,3.96-11.295,5.939-18.92,5.939c-5.721,0-10.799-1.227-15.236-3.685c-4.438-2.456-7.902-6.012-10.395-10.67
		c-2.494-4.656-3.74-10.138-3.74-16.445c0-6.306,1.246-11.787,3.74-16.444c2.492-4.656,5.957-8.213,10.395-10.67
		s9.516-3.686,15.236-3.686c5.865,0,10.944,1.229,15.234,3.686s7.553,5.738,9.79,9.845c2.235,4.107,3.354,8.58,3.354,13.42
		c0,2.054-0.147,3.924-0.439,5.61h-49.721c0.072,5.06,1.117,9.295,3.136,12.704c2.017,3.41,4.638,5.923,7.864,7.535
		c3.227,1.614,6.711,2.42,10.451,2.42C423.981,153.999,428.527,152.644,432.195,149.93z M408.216,107.47
		c-3.229,1.613-5.85,4.089-7.865,7.425c-2.018,3.338-3.1,7.499-3.246,12.484h42.461c0.292-4.912-0.514-9.056-2.42-12.43
		c-1.908-3.372-4.475-5.866-7.7-7.479c-3.228-1.612-6.748-2.42-10.56-2.42C414.997,105.05,411.441,105.857,408.216,107.47z"/>
	<path d="M467.945,149.709v9.9h-10.229v-9.9H467.945z M466.955,80.739l-1.21,57.311h-6.16l-1.21-57.311H466.955z"/>
</g>
<image overflow="visible" width="3138" height="4458" xlink:href="sline.png"  transform="matrix(0.0658 0 0 0.0658 3 -30.0059)">
</image>
</svg>
