<?xml version="1.0" encoding="utf-8"?>
<!-- Generator: Adobe Illustrator 16.0.0, SVG Export Plug-In . SVG Version: 6.00 Build 0)  -->
<!DOCTYPE svg PUBLIC "-//W3C//DTD SVG 1.1//EN" "http://www.w3.org/Graphics/SVG/1.1/DTD/svg11.dtd">
<svg version="1.1" id="Layer_1" xmlns="http://www.w3.org/2000/svg" xmlns:xlink="http://www.w3.org/1999/xlink" x="0px" y="0px"
	 width="233px" height="98.27px" viewBox="0 0 233 98.27" enable-background="new 0 0 233 98.27" xml:space="preserve">
<image overflow="visible" enable-background="new    " width="2843" height="2793" xlink:href="FEBEFDA1.png"  transform="matrix(0.0332 0 0 0.0332 3 2.9993)">
</image>
<g>
	<path d="M126.09,31.515c0,4.577-3.186,6.865-9.556,6.865c-2.326,0-4.392-0.266-6.197-0.798l0.649-2.913
		c2.078,0.718,4.051,1.076,5.919,1.076c4.207,0,6.309-1.188,6.309-3.563c0-1.2-0.544-2.227-1.633-3.08
		c-0.729-0.568-2.165-1.33-4.306-2.282c-2.25-1.002-3.829-1.923-4.73-2.765c-1.25-1.163-1.874-2.622-1.874-4.379
		c0-1.831,0.637-3.321,1.911-4.472c1.422-1.286,3.433-1.931,6.029-1.931c2.945,0,4.961,0.192,6.05,0.575l-0.445,2.95
		c-1.88-0.594-3.878-0.891-5.993-0.891c-3.179,0-4.769,1.063-4.769,3.19c0,1.027,0.458,1.887,1.373,2.579
		c0.594,0.433,1.905,1.089,3.935,1.967c2.313,1.002,3.982,1.955,5.01,2.857C125.316,27.866,126.09,29.536,126.09,31.515z"/>
	<path d="M145.417,28.417c0,3.167-0.909,5.638-2.728,7.413c-1.818,1.774-3.959,2.663-6.42,2.663c-2.302,0-4.277-0.785-5.929-2.356
		s-2.477-3.785-2.477-6.643c0-3.191,0.911-5.685,2.737-7.479c1.823-1.793,3.967-2.689,6.429-2.689c2.301,0,4.272,0.795,5.919,2.384
		C144.594,23.299,145.417,25.535,145.417,28.417z M142.207,29.066c0-1.93-0.486-3.646-1.457-5.148s-2.354-2.254-4.146-2.254
		c-1.781,0-3.151,0.711-4.11,2.134s-1.438,3.074-1.438,4.954c0,1.941,0.485,3.662,1.457,5.158c0.971,1.497,2.359,2.244,4.166,2.244
		c1.781,0,3.148-0.714,4.102-2.143C141.73,32.582,142.207,30.934,142.207,29.066z"/>
	<path d="M159.01,20.141l-0.835,2.95c-0.965-0.383-1.862-0.575-2.69-0.575c-2.325,0-3.834,1.107-4.526,3.321
		c0,5.689,0.037,9.667,0.11,11.931h-3.283c0.197-3.921,0.297-6.964,0.297-9.129c0-2.932-0.291-5.739-0.872-8.424l3.247-0.464
		c0.234,1.36,0.354,2.27,0.354,2.728h0.147c1.336-1.967,2.896-2.95,4.676-2.95C156.573,19.529,157.698,19.733,159.01,20.141z"/>
	<path d="M176.313,28.417c0,3.167-0.908,5.638-2.728,7.413c-1.817,1.774-3.959,2.663-6.42,2.663c-2.301,0-4.276-0.785-5.929-2.356
		c-1.651-1.571-2.478-3.785-2.478-6.643c0-3.191,0.912-5.685,2.737-7.479c1.824-1.793,3.967-2.689,6.429-2.689
		c2.302,0,4.273,0.795,5.919,2.384C175.49,23.299,176.313,25.535,176.313,28.417z M173.104,29.066c0-1.93-0.485-3.646-1.457-5.148
		c-0.971-1.503-2.354-2.254-4.146-2.254c-1.78,0-3.151,0.711-4.108,2.134c-0.959,1.423-1.438,3.074-1.438,4.954
		c0,1.941,0.485,3.662,1.456,5.158c0.971,1.497,2.359,2.244,4.166,2.244c1.781,0,3.148-0.714,4.101-2.143
		C172.63,32.582,173.104,30.934,173.104,29.066z"/>
	<path d="M189.906,20.141l-0.834,2.95c-0.965-0.383-1.863-0.575-2.691-0.575c-2.326,0-3.834,1.107-4.527,3.321
		c0,5.689,0.037,9.667,0.111,11.931h-3.283c0.197-3.921,0.297-6.964,0.297-9.129c0-2.932-0.291-5.739-0.873-8.424l3.248-0.464
		c0.234,1.36,0.353,2.27,0.353,2.728h0.147c1.336-1.967,2.896-2.95,4.676-2.95C187.469,19.529,188.596,19.733,189.906,20.141z"/>
	<path d="M193.629,37.768h-3.357c0.172-2.474,0.26-5.3,0.26-8.479c0-3.575-0.217-6.574-0.649-8.999l3.711-0.501
		c-0.147,2.585-0.223,5.752-0.223,9.5C193.369,32.257,193.455,35.084,193.629,37.768z M194.408,14.575
		c0,0.631-0.204,1.178-0.612,1.642c-0.407,0.464-0.983,0.696-1.726,0.696c-0.631,0-1.122-0.201-1.477-0.604
		c-0.352-0.401-0.527-0.887-0.527-1.457c0-0.618,0.209-1.156,0.631-1.614c0.42-0.457,1.002-0.687,1.744-0.687
		c0.604,0,1.084,0.201,1.438,0.603C194.23,13.558,194.408,14.031,194.408,14.575z"/>
	<path d="M206.813,35.208l-0.223,2.412c-0.979,0.357-1.898,0.538-2.765,0.538c-2.228,0-3.748-0.566-4.563-1.698
		c-0.816-1.132-1.226-3.157-1.226-6.077c0-1.893,0.012-4.36,0.037-7.403c-0.693,0-1.714,0.037-3.062,0.111l0.11-2.69
		c1.175,0.074,2.228,0.111,3.153,0.111c0-0.742,0.063-2.505,0.187-5.288l2.913-0.297c-0.211,2.598-0.314,4.459-0.314,5.585
		c1.211,0,2.992-0.062,5.344-0.186l-0.131,2.765c-2.227-0.074-4.015-0.111-5.361-0.111c-0.025,1.868-0.037,3.972-0.037,6.31
		c0,2.548,0.27,4.233,0.807,5.056c0.539,0.823,1.537,1.234,2.998,1.234C205.162,35.579,205.873,35.455,206.813,35.208z"/>
	<path d="M222.782,20.141c0,0.792-0.935,3.315-2.802,7.57c-2.142,4.86-3.471,8.288-3.989,10.279
		c-0.854,3.229-1.646,5.281-2.375,6.159c-0.99,1.212-2.753,1.818-5.288,1.818l-0.148-2.598c1.547,0,2.832-0.526,3.859-1.577
		c1.025-1.052,1.54-2.369,1.54-3.952c0-1.373-1.14-4.639-3.414-9.797c-2.276-5.158-3.414-7.793-3.414-7.904h3.841
		c0,0.334,0.779,2.585,2.338,6.754s2.338,6.735,2.338,7.7h0.187c0-0.804,0.659-3.136,1.976-6.995
		c1.318-3.858,1.978-6.346,1.978-7.459L222.782,20.141L222.782,20.141z"/>
	<path d="M126.702,80.641l-0.111,2.729h-14.603c0.148-3.056,0.223-7.286,0.223-12.691c0-4.651-0.074-8.473-0.223-11.467h3.451
		c-0.148,2.499-0.223,6.321-0.223,11.467c0,4.23-0.068,7.62-0.204,10.168C118.725,80.845,122.62,80.777,126.702,80.641z"/>
	<path d="M131.018,83.368h-3.357c0.173-2.475,0.26-5.301,0.26-8.479c0-3.575-0.217-6.574-0.648-8.999l3.711-0.501
		c-0.148,2.585-0.224,5.752-0.224,9.5C130.758,77.857,130.846,80.684,131.018,83.368z M131.797,60.175
		c0,0.631-0.204,1.178-0.611,1.642c-0.408,0.465-0.983,0.696-1.727,0.696c-0.631,0-1.123-0.201-1.475-0.603
		c-0.354-0.402-0.529-0.888-0.529-1.457c0-0.618,0.21-1.156,0.631-1.614c0.42-0.458,1.002-0.688,1.744-0.688
		c0.605,0,1.085,0.201,1.438,0.604C131.621,59.158,131.797,59.631,131.797,60.175z"/>
	<path d="M149.751,83.368h-3.377c0.272-3.253,0.408-6.804,0.408-10.65c0-1.905-0.388-3.207-1.16-3.906s-1.877-1.048-3.312-1.048
		c-1.758,0-3.377,0.637-4.861,1.911c0,4.218,0.023,8.783,0.074,13.693h-3.377c0.209-4.206,0.314-7.249,0.314-9.129
		c0-2.896-0.271-5.702-0.816-8.425l3.267-0.464l0.353,2.265h0.148c1.831-1.657,3.791-2.486,5.882-2.486
		c2.054,0,3.644,0.455,4.769,1.364c1.125,0.908,1.688,2.526,1.688,4.852c0,0.235-0.013,0.699-0.037,1.392
		c-0.024,0.693-0.036,1.157-0.036,1.393C149.677,76.194,149.701,79.274,149.751,83.368z"/>
	<path d="M167.927,72.477c0,0.521-0.024,1.237-0.073,2.152l-12.748,0.223c0.125,1.807,0.822,3.318,2.098,4.537
		c1.273,1.219,2.962,1.828,5.064,1.828c1.881,0,3.644-0.229,5.289-0.688l-0.315,2.616c-1.214,0.482-2.964,0.725-5.251,0.725
		c-3.217,0-5.668-0.878-7.357-2.636c-1.688-1.756-2.533-3.896-2.533-6.42c0-2.695,0.771-5.019,2.311-6.967s3.609-2.922,6.207-2.922
		c2.388,0,4.201,0.705,5.445,2.115C167.305,68.45,167.927,70.263,167.927,72.477z M164.828,72.514c0-3.476-1.453-5.214-4.36-5.214
		c-2.969,0-4.719,1.806-5.251,5.418L164.828,72.514z"/>
	<path d="M175.156,80.641c0,0.73-0.245,1.373-0.733,1.93c-0.489,0.558-1.166,0.836-2.032,0.836c-0.729,0-1.295-0.241-1.697-0.725
		c-0.401-0.482-0.604-1.058-0.604-1.726c0-0.717,0.248-1.346,0.742-1.883c0.495-0.538,1.182-0.808,2.061-0.808
		c0.729,0,1.289,0.229,1.68,0.688C174.961,79.41,175.156,79.973,175.156,80.641z M174.877,61.715c0,2.66-0.514,6.556-1.539,11.688
		h-1.373C171.32,68.185,171,64.362,171,61.938c0-2.114,0.729-3.173,2.189-3.173C174.314,58.765,174.877,59.748,174.877,61.715z"/>
</g>
</svg>
